<svg width="26" height="26" viewBox="0 0 26 26" fill="none" xmlns="http://www.w3.org/2000/svg">
<path opacity="0.2" d="M10.398 1.78953C10.6443 2.86364 10.6138 3.98273 10.3093 5.04183C10.0048 6.10092 9.43627 7.06532 8.65704 7.84455C7.8778 8.62378 6.91341 9.19232 5.85431 9.49682C4.79522 9.80133 3.67613 9.83183 2.60202 9.58547C2.83346 10.5855 3.29801 11.5166 3.95777 12.3029C4.61754 13.0892 5.45382 13.7085 6.39843 14.1101C6.99085 13.5912 7.70967 13.2378 8.48232 13.0855C9.25497 12.9332 10.0541 12.9875 10.7991 13.2427C11.102 12.1176 11.6841 11.0872 12.4914 10.2471C13.2987 9.40695 14.305 8.78427 15.4172 8.4368H15.4324C15.4324 8.33523 15.4395 8.23367 15.4395 8.13211C15.4414 6.66028 14.9437 5.23138 14.0279 4.0792C13.112 2.92702 11.8323 2.11977 10.398 1.78953Z" fill="#343330"/>
<path d="M17.4687 7.3125C17.0482 7.31231 16.6284 7.34627 16.2134 7.41406C16.0658 5.88896 15.4424 4.44887 14.4314 3.29752C13.4204 2.14617 12.073 1.34186 10.5798 0.998359C10.4457 0.96755 10.3059 0.971303 10.1737 1.00927C10.0414 1.04723 9.92096 1.11816 9.82361 1.21541C9.72627 1.31265 9.65521 1.43303 9.61711 1.56524C9.57901 1.69746 9.57511 1.83719 9.60578 1.97133C9.79715 2.80502 9.79818 3.67112 9.6088 4.50526C9.41942 5.33941 9.0445 6.12015 8.51189 6.78947C7.97928 7.4588 7.30269 7.99949 6.53238 8.37137C5.76208 8.74324 4.91787 8.93675 4.0625 8.9375C3.63221 8.93756 3.20329 8.88919 2.78382 8.79328C2.64962 8.7624 2.50976 8.76615 2.3774 8.80416C2.24504 8.84216 2.12451 8.91319 2.02713 9.01057C1.92975 9.10795 1.85872 9.22848 1.82071 9.36084C1.78271 9.49321 1.77896 9.63306 1.80984 9.76727C2.02811 10.7085 2.43019 11.5973 2.99298 12.3827C3.55578 13.168 4.26819 13.8344 5.08929 14.3437C4.51181 15.1304 4.16361 16.0617 4.08334 17.0344C4.00307 18.007 4.19387 18.9828 4.63456 19.8536C5.07525 20.7243 5.7486 21.4559 6.57987 21.9672C7.41114 22.4785 8.36783 22.7495 9.34375 22.75H17.4687C19.5159 22.75 21.4792 21.9368 22.9267 20.4892C24.3743 19.0417 25.1875 17.0784 25.1875 15.0312C25.1875 12.9841 24.3743 11.0208 22.9267 9.57327C21.4792 8.12572 19.5159 7.3125 17.4687 7.3125ZM3.79539 10.5625C3.88375 10.5625 3.97312 10.5625 4.0625 10.5625C6.00123 10.5603 7.85995 9.78924 9.23084 8.41834C10.6017 7.04745 11.3728 5.18874 11.375 3.25C11.375 3.15961 11.375 3.06922 11.375 2.97883C12.3106 3.41666 13.1083 4.10263 13.6813 4.96213C14.2543 5.82163 14.5807 6.82178 14.625 7.85383C13.6326 8.24791 12.7324 8.84289 11.9808 9.60142C11.2293 10.3599 10.6427 11.2656 10.2578 12.2616C9.57087 12.1428 8.8672 12.1611 8.18737 12.3155C7.50755 12.47 6.86503 12.7575 6.29687 13.1615C5.20411 12.5882 4.32646 11.6764 3.79539 10.5625ZM17.4687 21.125H9.34375C8.84368 21.1241 8.34911 21.0206 7.89063 20.8209C7.43215 20.6213 7.0195 20.3297 6.6782 19.9642C6.3369 19.5987 6.0742 19.1671 5.90635 18.696C5.73849 18.225 5.66905 17.7245 5.70232 17.2255C5.73559 16.7265 5.87086 16.2397 6.09977 15.7951C6.32867 15.3505 6.64635 14.9576 7.03315 14.6406C7.41996 14.3237 7.86767 14.0895 8.34859 13.9525C8.82952 13.8154 9.33345 13.7785 9.82922 13.844C9.79164 14.0847 9.76523 14.3305 9.75101 14.5783C9.74488 14.685 9.75982 14.7918 9.79498 14.8928C9.83015 14.9937 9.88484 15.0867 9.95595 15.1665C10.0271 15.2463 10.1132 15.3113 10.2094 15.3578C10.3056 15.4043 10.4101 15.4314 10.5168 15.4375C10.6235 15.4436 10.7304 15.4287 10.8313 15.3935C10.9322 15.3584 11.0252 15.3037 11.105 15.2326C11.1848 15.1614 11.2498 15.0753 11.2963 14.9791C11.3428 14.8829 11.3699 14.7784 11.376 14.6717C11.3988 14.2665 11.4628 13.8646 11.5669 13.4723C11.5669 13.456 11.5761 13.4398 11.5791 13.4235C11.8778 12.3261 12.4773 11.334 13.31 10.5593C14.1427 9.78455 15.1753 9.25807 16.2914 9.03926C17.4075 8.82045 18.5626 8.91804 19.6262 9.32101C20.6897 9.72398 21.6194 10.4163 22.3103 11.3197C23.0012 12.2232 23.4258 13.3018 23.5361 14.4338C23.6463 15.5657 23.4379 16.706 22.9344 17.7258C22.4308 18.7456 21.6522 19.6043 20.6864 20.205C19.7206 20.8056 18.6061 21.1243 17.4687 21.125Z" fill="#343330"/>
</svg>
