<svg width="26" height="26" viewBox="0 0 26 26" fill="none" xmlns="http://www.w3.org/2000/svg">
<path opacity="0.2" d="M14.2025 8.57289C13.1783 8.96173 12.2608 9.5879 11.5255 10.4C10.7902 11.2121 10.2579 12.1871 9.97243 13.2448V13.2336C9.32457 13.0135 8.63488 12.9448 7.95634 13.0329C7.2778 13.1209 6.62846 13.3633 6.05821 13.7414C5.60214 13.2111 5.26553 12.5888 5.07123 11.9169C4.87693 11.245 4.8295 10.5391 4.93215 9.84723C5.03481 9.15535 5.28515 8.49366 5.66617 7.9071C6.0472 7.32053 6.54998 6.82282 7.14038 6.44777C7.73079 6.07272 8.39499 5.82912 9.08787 5.73349C9.78076 5.63786 10.4861 5.69246 11.156 5.89357C11.826 6.09468 12.4448 6.43759 12.9704 6.89902C13.4961 7.36046 13.9163 7.9296 14.2025 8.56781V8.57289Z" fill="#343330"/>
<path d="M16.6563 7.3125C15.961 7.31208 15.2689 7.40534 14.5986 7.58977C14.334 7.15803 14.0125 6.76382 13.6429 6.41773L14.6088 5.03953C14.67 4.9521 14.7134 4.85348 14.7365 4.74928C14.7596 4.64508 14.7619 4.53735 14.7434 4.43224C14.7249 4.32713 14.6858 4.2267 14.6285 4.13669C14.5711 4.04667 14.4966 3.96883 14.4092 3.90762C14.3218 3.8464 14.2231 3.803 14.1189 3.7799C14.0147 3.75679 13.907 3.75444 13.8019 3.77297C13.6968 3.79151 13.5964 3.83056 13.5063 3.8879C13.4163 3.94525 13.3385 4.01976 13.2773 4.10719L12.3114 5.48437C11.5172 5.08334 10.6398 4.87461 9.75 4.875C9.6911 4.875 9.63219 4.875 9.57328 4.875L9.27977 3.22055C9.26436 3.11274 9.22745 3.00914 9.17121 2.91589C9.11497 2.82263 9.04056 2.74164 8.9524 2.67771C8.86424 2.61378 8.76413 2.56823 8.65802 2.54376C8.5519 2.51929 8.44195 2.5164 8.3347 2.53527C8.22745 2.55413 8.12508 2.59436 8.03369 2.65356C7.94229 2.71277 7.86373 2.78975 7.80267 2.87992C7.74161 2.97009 7.6993 3.07161 7.67826 3.17845C7.65721 3.2853 7.65786 3.39528 7.68016 3.50187L7.97266 5.16141C7.07155 5.45945 6.25917 5.97788 5.6093 6.66961L4.22602 5.70172C4.13866 5.63899 4.03972 5.59424 3.93494 5.57004C3.83015 5.54585 3.7216 5.54269 3.61559 5.56077C3.50958 5.57884 3.40821 5.61778 3.31736 5.67533C3.22651 5.73288 3.14798 5.80789 3.08634 5.89601C3.0247 5.98414 2.98117 6.08362 2.95827 6.1887C2.93537 6.29378 2.93356 6.40235 2.95294 6.50813C2.97232 6.61392 3.01251 6.7148 3.07117 6.80493C3.12984 6.89506 3.20581 6.97265 3.29469 7.0332L4.67188 8.00008C4.26943 8.79418 4.06061 9.67224 4.0625 10.5625C4.0625 10.6204 4.0625 10.6793 4.0625 10.7372L2.40805 11.0297C2.2078 11.0648 2.02797 11.1736 1.90407 11.3348C1.78017 11.496 1.7212 11.6978 1.7388 11.9003C1.7564 12.1029 1.84929 12.2915 1.99914 12.4289C2.14899 12.5663 2.3449 12.6425 2.54821 12.6425C2.59552 12.6424 2.64275 12.6384 2.68938 12.6303L4.34688 12.3378C4.49251 12.7812 4.69241 13.2049 4.94203 13.5992C4.16487 14.3211 3.62308 15.2602 3.38721 16.2944C3.15135 17.3285 3.23235 18.4097 3.61966 19.3972C4.00697 20.3846 4.68265 21.2326 5.55869 21.8306C6.43474 22.4286 7.47056 22.749 8.53125 22.75H16.6563C18.7034 22.75 20.6667 21.9368 22.1142 20.4892C23.5618 19.0417 24.375 17.0784 24.375 15.0312C24.375 12.9841 23.5618 11.0208 22.1142 9.57327C20.6667 8.12572 18.7034 7.3125 16.6563 7.3125ZM5.6875 10.5625C5.68799 9.70212 5.96162 8.86411 6.46897 8.16923C6.97632 7.47435 7.69118 6.95849 8.51053 6.69599C9.32989 6.43349 10.2114 6.4379 11.0281 6.70859C11.8448 6.97928 12.5545 7.50227 13.0548 8.20219C11.3974 9.07441 10.1122 10.5177 9.43719 12.2647C8.3691 12.0803 7.27016 12.2281 6.28875 12.6882C5.89583 12.0488 5.68772 11.313 5.6875 10.5625ZM16.6563 21.125H8.53125C8.03118 21.1241 7.53662 21.0206 7.07814 20.8209C6.61966 20.6213 6.20701 20.3297 5.86571 19.9642C5.52441 19.5987 5.26171 19.1671 5.09385 18.696C4.926 18.225 4.85656 17.7245 4.88983 17.2255C4.9231 16.7266 5.05837 16.2397 5.28727 15.7951C5.51618 15.3505 5.83386 14.9576 6.22066 14.6406C6.60746 14.3237 7.05517 14.0895 7.5361 13.9524C8.01703 13.8154 8.52096 13.7785 9.01672 13.844C8.97914 14.0847 8.95274 14.3305 8.93852 14.5783C8.92613 14.7938 8.99985 15.0054 9.14346 15.1665C9.28707 15.3276 9.48881 15.4251 9.7043 15.4375C9.91979 15.4499 10.1314 15.3762 10.2925 15.2326C10.4536 15.0889 10.5511 14.8872 10.5635 14.6717C10.5863 14.2665 10.6503 13.8646 10.7545 13.4723C10.7545 13.456 10.7636 13.4398 10.7666 13.4235C11.0653 12.3261 11.6648 11.334 12.4975 10.5593C13.3302 9.78455 14.3629 9.25806 15.479 9.03926C16.595 8.82045 17.7501 8.91804 18.8137 9.32101C19.8772 9.72397 20.8069 10.4163 21.4978 11.3197C22.1887 12.2232 22.6133 13.3018 22.7236 14.4338C22.8338 15.5657 22.6254 16.706 22.1219 17.7258C21.6183 18.7456 20.8397 19.6043 19.8739 20.205C18.9081 20.8056 17.7936 21.1243 16.6563 21.125Z" fill="#343330"/>
</svg>
