<svg width="32" height="32" viewBox="0 0 32 32" fill="none" xmlns="http://www.w3.org/2000/svg">
<path d="M14.6475 23.5926C14.7873 23.7319 14.8983 23.8975 14.974 24.0798C15.0497 24.2621 15.0887 24.4576 15.0887 24.6551C15.0887 24.8525 15.0497 25.048 14.974 25.2303C14.8983 25.4126 14.7873 25.5782 14.6475 25.7176L14.0075 26.3575C13.3281 27.0394 12.5203 27.5799 11.6307 27.9476C10.7412 28.3154 9.78754 28.5032 8.82497 28.5C7.37539 28.5005 5.95823 28.071 4.7528 27.2659C3.54737 26.4608 2.60782 25.3162 2.05302 23.977C1.49823 22.6378 1.35312 21.1641 1.63604 19.7424C1.91897 18.3207 2.61723 17.0148 3.64247 15.99L7.98622 11.6463C8.91014 10.7225 10.0642 10.0625 11.3289 9.73449C12.5935 9.40651 13.9229 9.42252 15.1793 9.78086C16.4358 10.1392 17.5736 10.8268 18.475 11.7726C19.3764 12.7184 20.0086 13.8879 20.3062 15.16C20.3555 15.3535 20.3657 15.5548 20.3362 15.7522C20.3067 15.9496 20.2381 16.1392 20.1344 16.3097C20.0307 16.4803 19.894 16.6284 19.7323 16.7455C19.5706 16.8625 19.3872 16.9461 19.1927 16.9914C18.9983 17.0367 18.7968 17.0426 18.6001 17.009C18.4033 16.9754 18.2153 16.9029 18.0469 16.7956C17.8785 16.6884 17.7333 16.5487 17.6196 16.3846C17.5059 16.2205 17.4262 16.0354 17.385 15.84C17.2084 15.0891 16.8344 14.3989 16.3017 13.8409C15.769 13.2829 15.097 12.8773 14.355 12.666C13.6131 12.4547 12.8282 12.4454 12.0814 12.639C11.3347 12.8327 10.6532 13.2223 10.1075 13.7675L5.76372 18.1113C5.15823 18.7163 4.74575 19.4873 4.57845 20.3267C4.41115 21.1661 4.49653 22.0363 4.82381 22.8272C5.15109 23.6181 5.70556 24.2942 6.4171 24.77C7.12864 25.2457 7.96528 25.4998 8.82122 25.5C9.38994 25.5017 9.95333 25.3905 10.4788 25.1729C11.0042 24.9553 11.4813 24.6357 11.8825 24.2325L12.5212 23.5926C12.6606 23.4525 12.8263 23.3414 13.0087 23.2656C13.1912 23.1898 13.3868 23.1507 13.5843 23.1507C13.7819 23.1507 13.9775 23.1898 14.16 23.2656C14.3424 23.3414 14.5081 23.4525 14.6475 23.5926ZM28.3537 5.6463C26.9789 4.27194 25.1145 3.49988 23.1706 3.49988C21.2266 3.49988 19.3623 4.27194 17.9875 5.6463L17.3487 6.28505C17.0669 6.56684 16.9086 6.94903 16.9086 7.34755C16.9086 7.74606 17.0669 8.12826 17.3487 8.41005C17.6305 8.69184 18.0127 8.85015 18.4112 8.85015C18.8097 8.85015 19.1919 8.69184 19.4737 8.41005L20.1137 7.77005C20.9259 6.95782 22.0276 6.50152 23.1762 6.50152C24.3249 6.50152 25.4265 6.95782 26.2387 7.77005C27.0509 8.58228 27.5072 9.68389 27.5072 10.8326C27.5072 11.9812 27.0509 13.0828 26.2387 13.8951L21.8875 18.2325C21.4864 18.6358 21.0093 18.9555 20.4839 19.1731C19.9584 19.3907 19.395 19.5018 18.8262 19.5C17.8506 19.4994 16.9038 19.1691 16.1394 18.5628C15.375 17.9566 14.8378 17.1099 14.615 16.16C14.5248 15.7725 14.2844 15.4366 13.9466 15.2264C13.6088 15.0161 13.2013 14.9486 12.8137 15.0388C12.4262 15.129 12.0903 15.3694 11.88 15.7072C11.6698 16.045 11.6023 16.4525 11.6925 16.84C12.0689 18.4486 12.9776 19.8829 14.2713 20.9103C15.5651 21.9377 17.1679 22.4979 18.82 22.5H18.8262C19.7892 22.5027 20.7432 22.3144 21.633 21.946C22.5228 21.5776 23.3307 21.0364 24.01 20.3538L28.3537 16.01C29.0343 15.3296 29.5742 14.5218 29.9425 13.6326C30.3109 12.7435 30.5004 11.7906 30.5004 10.8282C30.5004 9.86578 30.3109 8.91282 29.9425 8.0237C29.5742 7.13459 29.0343 6.32674 28.3537 5.6463Z" fill="#343330"/>
</svg>
